<?xml version="1.0" standalone="no"?>
<!DOCTYPE svg PUBLIC "-//W3C//DTD SVG 20010904//EN"
 "http://www.w3.org/TR/2001/REC-SVG-20010904/DTD/svg10.dtd">
<svg version="1.0" xmlns="http://www.w3.org/2000/svg"
 width="800.000000pt" height="800.000000pt" viewBox="0 0 800.000000 800.000000"
 preserveAspectRatio="xMidYMid meet">
<metadata>
Created by potrace 1.11, written by Peter Selinger 2001-2013
</metadata>
<g transform="translate(0.000000,800.000000) scale(0.100000,-0.100000)"
fill="#000000" stroke="none">
<path d="M3855 5760 c-27 -5 -88 -13 -135 -19 -47 -6 -103 -15 -125 -20 -107
-25 -172 -43 -187 -52 -10 -5 -22 -9 -28 -9 -27 0 -198 -85 -295 -147 -218
-139 -357 -275 -464 -451 -71 -119 -186 -375 -198 -445 -3 -15 -9 -30 -14 -33
-5 -3 -9 -18 -9 -34 0 -16 -4 -32 -10 -35 -5 -3 -10 -15 -10 -26 0 -10 -4 -27
-9 -37 -28 -49 -66 -250 -83 -429 -8 -92 -8 -154 0 -245 24 -250 49 -347 145
-548 28 -58 112 -197 127 -210 3 -3 20 -25 38 -50 27 -38 190 -202 234 -235
115 -87 266 -174 373 -215 11 -4 31 -12 45 -18 135 -55 406 -102 591 -102 230
1 606 72 741 141 10 5 27 9 38 9 11 0 20 3 20 8 0 4 15 13 33 20 45 19 121 56
127 62 5 5 32 21 75 44 26 15 107 68 122 81 6 5 26 21 44 35 34 26 153 142
179 176 54 68 93 130 130 204 63 126 73 153 99 285 66 330 57 785 -20 1070 -6
22 -13 51 -15 65 -3 14 -9 34 -14 45 -4 11 -19 52 -32 90 -12 39 -26 72 -30
73 -5 2 -8 10 -8 17 0 22 -106 220 -162 304 -74 109 -198 251 -265 302 -32 24
-60 47 -63 50 -10 12 -210 139 -219 139 -5 0 -11 3 -13 8 -4 8 -78 45 -128 62
-19 7 -44 16 -55 20 -43 17 -104 31 -180 41 -108 14 -329 20 -390 9z m423
-219 c121 -21 280 -83 372 -145 92 -62 211 -174 288 -271 31 -38 60 -71 64
-73 4 -2 8 -7 8 -12 0 -4 15 -30 33 -57 29 -44 91 -164 130 -253 35 -79 73
-218 106 -385 43 -219 29 -662 -28 -875 -18 -71 -83 -225 -101 -240 -3 -3 -10
-17 -17 -31 -22 -50 -84 -139 -138 -197 -52 -57 -221 -182 -244 -182 -6 0 -11
-3 -11 -8 0 -4 -15 -13 -32 -21 -35 -14 -72 -30 -128 -54 -19 -8 -75 -27 -125
-42 -49 -15 -100 -31 -113 -36 -13 -5 -35 -9 -50 -9 -16 0 -32 -4 -37 -9 -6
-5 -28 -11 -50 -14 -22 -3 -78 -11 -125 -18 -99 -15 -386 -16 -480 -1 -110 17
-144 23 -165 31 -11 5 -51 18 -90 31 -38 12 -111 42 -162 66 -50 24 -96 44
-102 44 -6 0 -11 4 -11 9 0 5 -16 16 -35 25 -19 9 -40 22 -47 29 -7 6 -38 29
-69 50 -161 108 -346 366 -403 562 -10 33 -22 69 -26 80 -22 54 -32 181 -27
351 5 201 28 329 109 624 11 41 24 84 28 95 4 11 18 47 31 80 12 33 28 67 34
75 7 8 20 32 30 52 23 51 139 223 195 289 73 89 135 144 243 216 145 99 227
136 442 203 17 5 68 14 114 19 46 6 87 13 90 17 10 9 432 -3 499 -15z"/>
<path d="M4069 4664 c-47 -25 -69 -79 -84 -204 -7 -60 14 -177 40 -213 24 -35
134 -62 150 -37 3 6 13 10 22 10 24 0 61 50 68 92 10 59 -4 167 -30 227 -28
68 -70 121 -95 121 -10 0 -22 5 -25 10 -8 12 -13 12 -46 -6z"/>
<path d="M3597 4634 c-74 -74 -84 -330 -16 -413 18 -22 28 -24 95 -24 63 0 78
3 98 22 84 79 26 378 -83 429 -39 18 -66 14 -94 -14z"/>
<path d="M4797 4028 c14 -194 8 -383 -15 -463 -24 -87 -43 -136 -59 -153 -7
-7 -13 -16 -13 -20 0 -11 -101 -114 -142 -146 -48 -36 -206 -116 -230 -116
-10 0 -18 -4 -18 -9 0 -5 -12 -11 -27 -14 -16 -4 -50 -11 -78 -17 -205 -46
-423 -46 -630 0 -27 6 -65 14 -83 17 -18 3 -35 9 -38 14 -3 5 -14 9 -25 9 -10
0 -27 4 -37 9 -9 5 -47 23 -83 40 -118 54 -221 169 -267 296 -44 122 -54 193
-57 385 -2 102 -4 191 -4 198 -1 9 -16 12 -53 10 l-53 -3 -7 -80 c-13 -148 1
-325 35 -465 27 -113 119 -282 177 -326 8 -7 27 -22 42 -35 60 -55 81 -66 198
-116 19 -8 43 -19 52 -24 10 -5 27 -9 37 -9 11 0 22 -4 25 -9 3 -4 22 -11 43
-14 21 -4 58 -11 83 -17 194 -46 440 -45 655 0 28 6 65 14 83 17 17 3 32 9 32
14 0 5 9 9 20 9 11 0 29 5 40 10 11 6 29 15 40 20 11 6 27 10 35 10 8 0 15 4
15 8 0 5 16 14 35 22 19 8 35 17 35 22 0 4 7 8 15 8 8 0 15 4 15 9 0 5 7 11
15 13 23 5 127 98 170 152 45 57 115 191 115 221 0 12 4 25 9 31 18 20 33 266
22 379 -6 61 -11 136 -11 168 l0 57 -61 0 -60 0 8 -112z"/>
</g>
</svg>
